<?xml version="1.0" standalone="no"?>
<!DOCTYPE svg PUBLIC "-//W3C//DTD SVG 1.1//EN" "http://www.w3.org/Graphics/SVG/1.1/DTD/svg11.dtd" >
<svg xmlns="http://www.w3.org/2000/svg">
<metadata>
Created by FontPrep 20130207 at Mon Jun  2 20:41:04 2014
 By Chris W. Burke
Copyright Copr. 1999, Luc[as] de Groot &#60;www.FontFabrik.com&#62;. All rights reserved. Published by FontShop International &#60;www.fontfont.de&#62;
</metadata>
<defs>
<font id="c3f70525213cd2350e2a3eb5ef97b345" horiz-adv-x='1024' >
  <font-face 
    font-family="TheSans-B8ExtraBold"
    font-weight="700"
    font-stretch="normal"
    units-per-em="2048"
    panose-1="2 0 8 3 0 0 0 0 0 0"
    ascent="1638"
    descent="-410"
    x-height="1018"
    cap-height="1382"
    bbox="-158 -508 2125 1780"
    underline-thickness="251"
    underline-position="-375"
    unicode-range="U+0020-FFFD"
  />
<missing-glyph 
 />
    <glyph glyph-name=".notdef" unicode="&#xfffd;" 
 />
    <glyph glyph-name=".null" horiz-adv-x="0" 
 />
    <glyph glyph-name="nonmarkingreturn" horiz-adv-x="681" 
 />
    <glyph glyph-name="space" unicode=" " horiz-adv-x="446" 
 />
    <glyph glyph-name="exclam" unicode="!" horiz-adv-x="661" 
d="M528 153q0 -75 -53 -126t-131 -51t-131 50q-53 52 -53 127t53 126t131 51t131 -51t53 -126zM530 1456l-45 -1044h-272l-49 1044h366z" />
    <glyph glyph-name="quotedbl" unicode="&#x22;" horiz-adv-x="880" 
d="M387 1442l-37 -553h-233l-39 553h309zM803 1442l-37 -553h-234l-38 553h309z" />
    <glyph glyph-name="numbersign" unicode="#" 
d="M690 786h-229l-25 -235h232zM1077 786h-162l-24 -235h141v-215h-164l-34 -336h-224l35 336h-231l-35 -336h-223l34 336h-141v215h164l23 235h-142v218h164l35 327h223l-35 -327h232l35 327h225l-35 -327h139v-218z" />
    <glyph glyph-name="dollar" unicode="$" 
d="M987 427q0 -128 -91 -236t-245 -146v-219h-221v205q-98 0 -244 22l23 277q123 -41 254 -41q193 0 192 121q0 51 -54 85q-54 35 -131 61t-154 62t-131 116q-54 79 -54 205t87 227t231 137v192h219v-176q117 -4 206 -25l-22 -260q-113 33 -225 33q-170 0 -170 -109
q0 -46 54 -78t132 -60t157 -66t133 -119q54 -80 54 -208z" />
    <glyph glyph-name="percent" unicode="%" horiz-adv-x="1570" 
d="M395 887q37 1 63 37t27 109q0 73 -22 103q-23 30 -66 30t-69 -37q-26 -36 -27 -101q0 -141 94 -141zM1180 166q40 0 66 36t26 109q0 135 -92 133q-41 0 -68 -36t-27 -101q0 -141 95 -141zM402 1358q140 0 226 -81t87 -236q-1 -155 -97 -251t-240 -96t-224 87
q-82 87 -82 238t95 245t235 94zM1395 1235l-1033 -1284l-194 141l1032 1284zM1499 320q0 -154 -96 -250t-240 -96q-143 0 -225 86q-82 87 -82 238t95 245t237 94t226 -81q85 -81 85 -236z" />
    <glyph glyph-name="ampersand" unicode="&#x26;" horiz-adv-x="1634" 
d="M410 432q0 -82 55 -136t165 -54t224 73q-182 145 -340 295q-104 -96 -104 -178zM682 1178q0 44 -27 74t-75 30t-77 -31q-30 -31 -30 -77q0 -82 94 -191q115 99 115 195zM561 -27q-239 0 -357 118t-118 296q0 221 242 412q-164 197 -164 353t117 259q117 102 311 102
t296 -83q101 -84 101 -232q0 -205 -237 -393q150 -139 319 -266v-2q117 190 111 415h311q4 -330 -184 -585l258 -183l-207 -237q-188 131 -275 196q-229 -170 -524 -170z" />
    <glyph glyph-name="quotesingle" unicode="'" horiz-adv-x="464" 
d="M387 1442l-37 -553h-233l-39 553h309z" />
    <glyph glyph-name="parenleft" unicode="(" horiz-adv-x="630" 
d="M82 587q0 554 307 1033l232 -104q-229 -414 -229 -924t235 -934l-240 -104q-305 479 -305 1033z" />
    <glyph glyph-name="parenright" unicode=")" horiz-adv-x="630" 
d="M549 585q0 -556 -307 -1031l-232 102q232 416 232 924t-234 933l240 107q301 -479 301 -1035z" />
    <glyph glyph-name="asterisk" unicode="*" horiz-adv-x="800" 
d="M745 1083l-110 -188l-166 141l39 -215h-219l39 215l-168 -139l-107 186l207 74l-207 76l109 186l168 -141l-41 217h219l-39 -217l168 141l108 -186l-206 -76z" />
    <glyph glyph-name="plus" unicode="+" 
d="M1051 479h-340v-362h-297v362h-338v262h338v359h297v-359h340v-262z" />
    <glyph glyph-name="comma" unicode="," horiz-adv-x="567" 
d="M283 352q117 0 168 -110q70 -147 -35 -346q-74 -143 -230 -275l-127 113q103 114 121 190t-41 137q-39 55 -40 121t51 118t133 52z" />
    <glyph glyph-name="hyphen" unicode="-" horiz-adv-x="690" 
d="M602 430h-516v250h516v-250z" />
    <glyph glyph-name="period" unicode="." horiz-adv-x="567" 
d="M477 168q0 -80 -57 -136t-136 -56q-78 0 -136 56t-58 136t57 137t137 57t136 -57q57 -57 57 -137z" />
    <glyph glyph-name="slash" unicode="/" horiz-adv-x="983" 
d="M987 1550l-717 -1880h-311l719 1880h309z" />
    <glyph glyph-name="zero" unicode="0" 
d="M733 636q0 363 -76 426q-35 30 -96 30q-84 0 -127 -90t-43 -296q-1 -208 19 -304t55 -127q35 -32 98 -31q86 0 128 92t42 300zM1069 682q0 -352 -145 -530t-371 -179q-378 0 -464 358q-34 138 -34 339q1 338 141 513t384 175t367 -162q122 -162 122 -514z" />
    <glyph glyph-name="one" unicode="1" 
d="M1044 0h-921v281h319v725l-276 -109l-49 297l413 137h238v-1050h276v-281z" />
    <glyph glyph-name="two" unicode="2" 
d="M1020 0h-926v256l139 135q242 233 317 335t75 175q-1 74 -51 119t-142 45q-147 0 -272 -84l-56 281q178 94 406 94t346 -115q119 -115 119 -267t-72 -276q-72 -123 -266 -301l-102 -96v-4q154 6 350 6h135v-303z" />
    <glyph glyph-name="three" unicode="3" 
d="M1006 434q0 -217 -169 -339t-446 -122q-145 0 -272 33l26 266q119 -39 257 -39q138 -1 202 47t64 123q0 156 -262 156q-115 0 -218 -14v239h70q387 0 387 177q0 137 -201 137q-158 0 -280 -64l-27 260q170 64 386 64t333 -91t117 -245q0 -221 -217 -293l-2 -4
q112 -18 182 -99t70 -192z" />
    <glyph glyph-name="four" unicode="4" 
d="M623 557v461h-2l-279 -465q70 4 281 4zM1085 276h-161v-276h-308v276h-557l-28 265l467 790h426v-774h161v-281z" />
    <glyph glyph-name="five" unicode="5" 
d="M1018 451q0 -217 -166 -347t-438 -129q-137 0 -262 29v279q133 -39 263 -39t193 47q64 47 64 130t-72 127t-190 44t-246 -17v756h794v-293h-495v-202h57q234 0 366 -106t132 -279z" />
    <glyph glyph-name="six" unicode="6" 
d="M754 418q0 86 -47 134t-133 48t-135 -51q-48 -51 -48 -130t49 -135q50 -56 136 -56t132 52t46 138zM1069 461q0 -227 -137 -357t-370 -131q-234 -1 -366 147t-133 449q-1 377 189 580t522 203q104 0 176 -9v-270q-92 18 -186 19q-276 0 -365 -267q-10 -35 -18 -69h2
q93 98 279 98t296 -112t111 -281z" />
    <glyph glyph-name="seven" unicode="7" 
d="M268 1024h-174v307h934v-268q-240 -465 -418 -1063h-356q74 252 190 543q117 291 220 487q-197 -6 -396 -6z" />
    <glyph glyph-name="eight" unicode="8" 
d="M737 357q0 61 -49 101t-149 85q-74 -45 -113 -86t-39 -99t48 -97q48 -38 130 -38t127 37t45 97zM717 991q0 55 -39 90t-116 35t-116 -36q-38 -36 -38 -88t42 -90t130 -79q137 80 137 168zM1061 386q1 -198 -147 -306t-370 -107q-222 -1 -350 97t-128 275t217 317
q-189 115 -189 298q0 182 136 290t346 108t332 -95t122 -245q0 -178 -192 -309q223 -125 223 -323z" />
    <glyph glyph-name="nine" unicode="9" 
d="M725 911q0 81 -48 137t-133 56t-131 -54t-46 -140t46 -132q46 -47 132 -47t133 49t47 131zM1061 762q-1 -379 -189 -581t-520 -201q-123 0 -202 14v272q98 -25 217 -24q276 0 354 256q4 14 11 37t9 32h-2q-101 -92 -281 -92t-292 113t-111 284q-1 222 139 354t370 132
t364 -150q133 -150 133 -446z" />
    <glyph glyph-name="colon" unicode=":" horiz-adv-x="626" 
d="M526 168q0 -80 -57 -136t-136 -56t-136 56t-58 136t57 137t137 57t136 -57t57 -137zM526 734q0 -79 -57 -136t-136 -57t-136 57t-57 136t56 136q58 58 137 58t136 -58t57 -136z" />
    <glyph glyph-name="semicolon" unicode=";" horiz-adv-x="626" 
d="M332 352q117 0 170 -110q68 -145 -37 -346q-74 -143 -229 -275l-127 113q106 114 123 190t-42 137q-41 55 -42 121q0 66 52 118t132 52zM526 734q0 -79 -57 -136t-136 -57t-136 57t-57 136t56 136q58 58 137 58t136 -58t57 -136z" />
    <glyph glyph-name="less" unicode="&#x3c;" 
d="M981 207l-205 -213l-657 618l653 619l207 -207l-459 -410z" />
    <glyph glyph-name="equal" unicode="=" 
d="M1020 274h-914v250h914v-250zM1020 692h-914v250h914v-250z" />
    <glyph glyph-name="greater" unicode="&#x3e;" 
d="M1008 612l-654 -618l-207 207l459 409l-461 410l205 211z" />
    <glyph glyph-name="question" unicode="?" horiz-adv-x="931" 
d="M397 330q77 0 131 -51t54 -126t-54 -126t-131 -51q-78 0 -131 50q-53 52 -53 127t53 126t131 51zM852 1044q0 -80 -29 -146t-71 -106t-87 -84q-46 -44 -80 -79t-48 -92t8 -125h-305q-49 129 -13 226q37 97 99 146q62 50 124 110t62 118q0 172 -397 182l39 283
q348 -7 523 -131t175 -302z" />
    <glyph glyph-name="at" unicode="@" horiz-adv-x="1976" 
d="M993 911q-80 0 -130 -94t-50 -204q0 -109 51 -109t103 80q51 80 82 239l14 78q-25 10 -70 10zM1067 1511q349 0 541 -183t192 -470q0 -288 -141 -440t-373 -152q-100 0 -154 49t-57 131h-8q-41 -74 -114 -127t-167 -53t-150 77t-56 230q0 240 123 392q124 152 366 151
q139 0 250 -47l-66 -387q-16 -96 -1 -135t69 -39q90 0 145 81q56 81 56 257t-114 296t-366 120t-428 -182t-176 -478q0 -510 549 -510q170 0 365 64l47 -240q-215 -78 -451 -78q-385 0 -589 196t-203 539q0 406 262 672t649 266z" />
    <glyph glyph-name="A" unicode="A" horiz-adv-x="1296" 
d="M791 508l-107 315q-29 84 -53 193h-4q-31 -129 -52 -193l-106 -315h322zM1307 0h-351l-86 256h-477l-84 -256h-317l467 1382h362z" />
    <glyph glyph-name="B" unicode="B" horiz-adv-x="1200" 
d="M791 427q1 79 -63 121t-162 42t-124 -2v-326q39 -6 135 -6t155 46t59 125zM756 993q0 141 -191 142q-45 0 -123 -5v-303q27 -2 95 -2q219 0 219 168zM1094 1042q0 -98 -50 -179t-139 -120v-6q104 -27 166 -113t62 -192q1 -184 -141 -310t-429 -126l-440 4v1380
q211 10 495 11q224 0 350 -88t126 -261z" />
    <glyph glyph-name="C" unicode="C" horiz-adv-x="1136" 
d="M717 -18q-185 0 -317 57t-202 157q-133 190 -130 445q0 344 182 548t518 204q160 0 283 -39l-41 -291q-116 43 -264 43t-238 -111t-90 -301q0 -422 360 -422q133 0 236 52l45 -283q-158 -59 -342 -59z" />
    <glyph glyph-name="D" unicode="D" horiz-adv-x="1351" 
d="M561 264q171 0 277 108t106 320q0 211 -83 321t-288 109q-96 0 -131 -4v-846q53 -8 119 -8zM1286 719q0 -349 -205 -539t-549 -190q-156 0 -409 12v1376q217 12 471 13q692 0 692 -672z" />
    <glyph glyph-name="E" unicode="E" horiz-adv-x="997" 
d="M901 0h-778v1382h778v-268h-459v-274h435v-260h-435v-306h459v-274z" />
    <glyph glyph-name="F" unicode="F" horiz-adv-x="948" 
d="M885 1110h-443v-295h418v-262h-418v-553h-319v1382h762v-272z" />
    <glyph glyph-name="G" unicode="G" horiz-adv-x="1372" 
d="M66 666q0 326 212 531q212 206 570 206q213 0 399 -57l-63 -291q-164 63 -356 63t-305 -117t-113 -315t101 -310q101 -110 292 -110q76 0 131 19v452h319v-669q-221 -90 -485 -91q-334 -1 -518 181t-184 508z" />
    <glyph glyph-name="H" unicode="H" horiz-adv-x="1390" 
d="M1268 0h-320v575h-506v-575h-319v1382h319v-530h506v530h320v-1382z" />
    <glyph glyph-name="I" unicode="I" horiz-adv-x="565" 
d="M442 0h-319v1382h319v-1382z" />
    <glyph glyph-name="J" unicode="J" horiz-adv-x="694" 
d="M573 403q0 -188 -91 -306t-300 -117q-100 0 -182 16v270q51 -18 119 -18q69 0 103 37t34 129v968h317v-979z" />
    <glyph glyph-name="K" unicode="K" horiz-adv-x="1239" 
d="M442 0h-319v1382h319v-610l379 610h387l-456 -665l479 -717h-414l-375 649v-649z" />
    <glyph glyph-name="L" unicode="L" horiz-adv-x="880" 
d="M860 0h-737v1382h319v-1099h418v-283z" />
    <glyph glyph-name="M" unicode="M" horiz-adv-x="1794" 
d="M1755 0h-336l-88 569q-25 143 -41 322h-4q-33 -168 -80 -326l-170 -565h-307l-164 522q-61 188 -90 369h-2q-8 -94 -41 -350l-70 -541h-321l221 1382h367l192 -606q41 -137 74 -301h4q33 164 80 303l195 604h360z" />
    <glyph glyph-name="N" unicode="N" horiz-adv-x="1419" 
d="M1296 0h-407l-326 596q-80 150 -143 303q10 -170 10 -373v-526h-307v1382h409l304 -546q72 -131 168 -340q-14 166 -15 432v454h307v-1382z" />
    <glyph glyph-name="O" unicode="O" horiz-adv-x="1437" 
d="M395 700q0 -206 79 -320q78 -114 224 -114t245 106t99 317q0 212 -83 321q-83 108 -229 108t-240 -106t-95 -312zM1380 720q0 -341 -196 -544t-500 -203q-305 1 -466 185t-161 515t198 533q197 202 487 203q290 0 464 -174t174 -515z" />
    <glyph glyph-name="P" unicode="P" horiz-adv-x="1097" 
d="M731 934q0 199 -221 199q-45 0 -68 -3v-405q41 -4 56 -4q102 2 168 58q65 57 65 155zM1061 949q1 -212 -145 -352t-400 -140q-45 0 -74 2v-459h-319v1382q199 10 393 11q264 0 404 -116t141 -328z" />
    <glyph glyph-name="Q" unicode="Q" horiz-adv-x="1437" 
d="M395 700q0 -206 79 -320q78 -114 224 -114t245 106t99 317q0 212 -83 321q-83 108 -229 108t-240 -106t-95 -312zM1434 -440q-218 -29 -320 -7q-102 23 -244 47t-276 7v278q239 26 431 -27t409 -20v-278zM1380 720q0 -341 -196 -544t-500 -203q-305 1 -466 185t-161 515
t198 533q197 202 487 203q290 0 464 -174t174 -515z" />
    <glyph glyph-name="R" unicode="R" horiz-adv-x="1177" 
d="M743 956q0 174 -213 174q-51 0 -88 -4v-354q33 -4 80 -4q102 0 162 50q59 50 59 138zM442 541v-541h-319v1382q145 10 432 11q522 0 522 -410q0 -139 -83 -243t-214 -140q90 -131 107 -156l284 -444h-389l-321 541h-19z" />
    <glyph glyph-name="S" unicode="S" horiz-adv-x="1028" 
d="M973 438q0 -201 -154 -332t-395 -131q-186 0 -330 37l31 303q150 -61 307 -61q82 0 135 36t53 103t-56 109q-58 42 -139 70t-162 66t-138 123t-57 214q0 199 144 315t402 117q137 0 252 -27l-28 -278q-117 41 -238 41q-190 0 -190 -131q0 -56 58 -98t141 -72t165 -73
q82 -42 140 -126t59 -205z" />
    <glyph glyph-name="T" unicode="T" horiz-adv-x="1038" 
d="M1010 1110h-332v-1110h-318v1110h-331v272h981v-272z" />
    <glyph glyph-name="U" unicode="U" horiz-adv-x="1378" 
d="M1255 543q-1 -287 -153 -428t-452 -141t-415 147q-114 148 -112 366v895h319v-876q0 -131 54 -198q54 -66 192 -66q137 0 195 64q57 65 57 218v858h315v-839z" />
    <glyph glyph-name="V" unicode="V" horiz-adv-x="1300" 
d="M1305 1382l-467 -1382h-373l-469 1382h344l244 -755q45 -137 71 -258h4q27 119 78 276l242 737h326z" />
    <glyph glyph-name="W" unicode="W" horiz-adv-x="1947" 
d="M1911 1382l-346 -1382h-387l-164 651q-31 127 -51 316h-2q-16 -164 -52 -305l-166 -662h-364l-342 1382h338l162 -673q33 -145 45 -289h2q27 182 53 280l180 682h330l180 -669q35 -129 55 -285h2q23 168 52 291l155 663h320z" />
    <glyph glyph-name="X" unicode="X" horiz-adv-x="1327" 
d="M1315 0h-402l-262 467l-262 -467h-377l432 705l-407 677h369l251 -448l248 448h363l-400 -680z" />
    <glyph glyph-name="Y" unicode="Y" horiz-adv-x="1183" 
d="M748 0h-320v481l-432 901h348l158 -352q55 -123 88 -221h4q27 80 106 250l150 323h336l-438 -899v-483z" />
    <glyph glyph-name="Z" unicode="Z" horiz-adv-x="1097" 
d="M1008 0h-918v250l445 743q31 51 73 107q-74 -4 -217 -4h-287v286h895v-260l-469 -753q-14 -25 -53 -78q27 4 268 4h263v-295z" />
    <glyph glyph-name="bracketleft" unicode="[" horiz-adv-x="677" 
d="M608 -426h-481v2025h481v-249h-188v-1524h188v-252z" />
    <glyph glyph-name="backslash" unicode="\" horiz-adv-x="1032" 
d="M1036 -330h-311l-717 1880h311z" />
    <glyph glyph-name="bracketright" unicode="]" horiz-adv-x="677" 
d="M553 -426h-481v252h186v1524h-186v249h481v-2025z" />
    <glyph glyph-name="asciicircum" unicode="^" 
d="M1018 793l-221 -111l-250 481l-240 -481l-207 106l334 594h236z" />
    <glyph glyph-name="underscore" unicode="_" 
d="M1126 -500h-1126v252h1126v-252z" />
    <glyph glyph-name="grave" unicode="`" horiz-adv-x="772" 
d="M676 1303l-109 -170l-411 215l135 208z" />
    <glyph glyph-name="a" unicode="a" horiz-adv-x="1077" 
d="M639 410v32q-279 0 -279 -131q0 -41 28 -69t90 -27t111 59q50 58 50 136zM668 0q0 102 8 154h-2q-37 -80 -121 -128t-208 -48t-202 84q-78 85 -77 217q0 184 154 272q155 88 419 88v41q0 66 -42 96q-43 30 -161 29q-118 0 -260 -68l-53 244q185 63 409 63t322 -88
t98 -266v-448q1 -136 9 -242h-293z" />
    <glyph glyph-name="b" unicode="b" horiz-adv-x="1144" 
d="M752 532q0 248 -140 248q-80 0 -130 -81t-50 -203v-256q43 -12 109 -13q211 0 211 305zM1081 546q0 -242 -148 -406q-148 -163 -415 -163q-209 0 -397 52v1466h311v-401q0 -111 -14 -203l2 -2q36 71 112 111t177 40q180 0 276 -126t96 -368z" />
    <glyph glyph-name="c" unicode="c" horiz-adv-x="856" 
d="M61 477q-1 246 135 405t398 158q104 0 207 -32l-47 -271q-80 35 -172 35t-144 -72t-51 -198q0 -252 205 -252q100 0 172 35l37 -262q-119 -45 -273 -46q-231 0 -349 127t-118 373z" />
    <glyph glyph-name="d" unicode="d" horiz-adv-x="1142" 
d="M711 528v250q-53 12 -107 13q-213 0 -213 -306q0 -250 141 -249q78 0 128 82t51 210zM1022 0h-287q0 82 10 145h-4q-96 -170 -309 -170q-180 0 -275 127t-95 368q0 240 146 404t400 164q53 0 103 -6v463h311v-1495z" />
    <glyph glyph-name="e" unicode="e" horiz-adv-x="1062" 
d="M544 815q-68 0 -114 -49q-45 -49 -53 -129h309q2 86 -36 132t-106 46zM993 569q0 -53 -10 -139h-606q4 -211 252 -211q154 0 299 64l30 -236q-172 -70 -380 -70q-516 0 -517 521q0 242 129 394q130 152 356 150q226 0 336 -131t111 -342z" />
    <glyph glyph-name="f" unicode="f" horiz-adv-x="731" 
d="M485 1108v-90h209v-240h-209v-778h-311v778h-156v240h156v88q0 207 99 307t319 100q92 0 164 -16l-21 -254q-55 19 -119 19q-130 2 -131 -154z" />
    <glyph glyph-name="g" unicode="g" horiz-adv-x="1122" 
d="M768 -131q0 100 -129 106l-162 5h-20q-14 0 -19 2q-72 -60 -72 -122t50 -98q49 -36 143 -34q94 0 152 39q57 39 57 102zM686 671q0 67 -39 107t-113 39q-74 0 -114 -40t-39 -103q0 -145 154 -146q71 0 111 38t40 105zM1075 -90q0 -172 -159 -295t-392 -123
q-463 0 -463 303q0 69 44 137t104 101q-98 47 -98 157q0 61 35 114q36 52 90 75q-154 82 -154 261t121 291t342 111q80 0 178 -24h346v-246h-117q29 -33 29 -90q0 -170 -113 -267t-327 -98q-29 0 -62 7q-37 -18 -37 -50t28 -42q28 -9 118 -13l137 -6q350 -12 350 -303z" />
    <glyph glyph-name="h" unicode="h" horiz-adv-x="1163" 
d="M1040 0h-311v647q0 131 -94 131q-82 0 -142 -87t-61 -199v-492h-311v1495h311v-408q0 -125 -16 -208h2q100 162 321 161q160 0 231 -89t70 -234v-717z" />
    <glyph glyph-name="i" unicode="i" horiz-adv-x="555" 
d="M432 0h-311v1018h311v-1018zM469 1321q0 -76 -56 -130q-55 -54 -135 -54t-136 54t-56 130t56 130t135 54t135 -54t57 -130z" />
    <glyph glyph-name="j" unicode="j" horiz-adv-x="561" 
d="M438 -51q0 -219 -98 -334t-326 -115q-76 0 -147 21l18 264q57 -23 121 -23t92 35t29 117v1104h311v-1069zM473 1321q0 -76 -56 -130t-135 -54t-136 54q-56 54 -56 130t56 130t136 54t135 -54q56 -54 56 -130z" />
    <glyph glyph-name="k" unicode="k" horiz-adv-x="1110" 
d="M432 0h-311v1495h311v-887l258 410h383l-336 -467l361 -551h-389l-277 489v-489z" />
    <glyph glyph-name="l" unicode="l" horiz-adv-x="555" 
d="M432 0h-311v1495h311v-1495z" />
    <glyph glyph-name="m" unicode="m" horiz-adv-x="1757" 
d="M1636 0h-313v637q0 141 -92 141q-74 0 -136 -85t-63 -204v-489h-307v639q0 139 -92 139q-78 0 -139 -85t-62 -204v-489h-311v1018h293q0 -80 -13 -162h2q49 86 135 135t191 49q221 0 279 -184q43 80 127 132t194 52q307 0 307 -344v-696z" />
    <glyph glyph-name="n" unicode="n" horiz-adv-x="1163" 
d="M1040 0h-311v647q0 131 -94 131q-82 0 -142 -86t-61 -198v-494h-311v1018h291q0 -100 -13 -160l2 -2q111 184 338 184q160 0 231 -89t70 -234v-717z" />
    <glyph glyph-name="o" unicode="o" horiz-adv-x="1142" 
d="M760 512q0 262 -185 262q-82 0 -138 -64t-56 -190q0 -272 188 -272q86 0 139 69q52 70 52 195zM1083 532q1 -248 -151 -402t-384 -153q-232 0 -362 123q-129 123 -129 378t152 409q151 153 387 153t362 -130t125 -378z" />
    <glyph glyph-name="p" unicode="p" horiz-adv-x="1144" 
d="M752 532q0 250 -140 250q-80 0 -130 -82t-50 -211v-249q49 -12 109 -13q211 0 211 305zM1081 565q0 -270 -138 -426t-406 -155q-61 0 -105 8v-477h-311v1503h287q0 -78 -9 -146h4q90 168 308 168q178 0 274 -126t96 -349z" />
    <glyph glyph-name="q" unicode="q" horiz-adv-x="1144" 
d="M711 535v245q-51 10 -107 11q-213 0 -213 -306q0 -250 139 -249q80 0 130 83t51 216zM1024 -485h-313v415q0 113 14 207l-4 2q-39 -78 -112 -121t-167 -43q-184 0 -281 121t-97 368t146 412q148 165 421 164q188 0 393 -32v-1493z" />
    <glyph glyph-name="r" unicode="r" horiz-adv-x="729" 
d="M432 420v-420h-311v1018h291q0 -92 -15 -180h4q95 214 306 204l-15 -309q-260 58 -260 -313z" />
    <glyph glyph-name="s" unicode="s" horiz-adv-x="841" 
d="M776 326q0 -160 -126 -254t-335 -95q-123 0 -225 29l16 254q94 -41 182 -41q158 0 156 80q0 41 -38 67q-40 26 -94 44t-109 46t-94 90t-39 156q0 150 113 245q114 95 337 95q76 0 178 -18l-10 -244q-74 27 -184 27t-109 -78q0 -37 39 -61t95 -46q57 -22 113 -52t95 -92
t39 -152z" />
    <glyph glyph-name="t" unicode="t" horiz-adv-x="772" 
d="M481 -23q-175 0 -243 71t-68 257v473h-154v240h154v301l313 84v-385h219v-240h-219v-401q0 -78 23 -109q37 -51 188 -16l19 -244q-117 -31 -232 -31z" />
    <glyph glyph-name="u" unicode="u" horiz-adv-x="1159" 
d="M1040 0h-290q0 100 12 160l-4 2q-106 -184 -336 -185q-160 -1 -232 89t-71 235v717h313v-647q0 -131 94 -131q82 0 142 86q59 86 59 198v494h313v-1018z" />
    <glyph glyph-name="v" unicode="v" horiz-adv-x="1062" 
d="M1065 1018l-375 -1018h-317l-375 1018h342l125 -361q35 -96 74 -247h4q29 133 65 237l125 371h332z" />
    <glyph glyph-name="w" unicode="w" horiz-adv-x="1634" 
d="M1624 1018l-317 -1018h-332l-113 354q-23 74 -59 244h-2q-18 -92 -66 -256l-102 -342h-314l-309 1018h340l78 -283q51 -182 84 -332h4q25 147 76 318l88 297h289l90 -281q57 -186 86 -334h4q39 205 72 318l84 297h319z" />
    <glyph glyph-name="x" unicode="x" horiz-adv-x="1093" 
d="M1085 0h-389l-157 311l-158 -311h-371l336 516l-315 502h370l160 -305l162 305h344l-297 -502z" />
    <glyph glyph-name="y" unicode="y" horiz-adv-x="1056" 
d="M1059 1018l-395 -1057q-100 -264 -222 -363t-311 -100q-82 0 -158 15l35 266q68 -20 135 -21q154 0 207 166l25 76l-369 1018h344l103 -297q39 -109 82 -297h2q37 154 96 328l92 266h334z" />
    <glyph glyph-name="z" unicode="z" horiz-adv-x="925" 
d="M834 0h-744v223l356 518q-57 -4 -184 -4h-160v281h725v-223l-346 -510q33 2 199 2h154v-287z" />
    <glyph glyph-name="braceleft" unicode="{" horiz-adv-x="770" 
d="M705 -426h-48q-217 0 -312 115t-95 379v221q0 127 -48 177t-149 54v234q100 4 149 49q48 45 48 172v135q0 256 95 373t312 116h48v-249q-97 0 -131 -45t-33 -193v-135q0 -309 -189 -338v-4q188 -29 189 -348v-219q1 -150 33 -196t131 -46v-252z" />
    <glyph glyph-name="bar" unicode="|" horiz-adv-x="593" 
d="M416 -485h-248v2048h248v-2048z" />
    <glyph glyph-name="braceright" unicode="}" horiz-adv-x="765" 
d="M522 289v-221q0 -264 -95 -379t-310 -115h-49v252q98 0 131 46t32 196v219q0 319 189 348v4q-188 25 -189 336v137q0 147 -32 193q-33 45 -131 45v249h49q215 -1 310 -117t95 -372v-133q0 -129 48 -174t151 -49v-234q-99 -4 -149 -54t-50 -177z" />
    <glyph glyph-name="asciitilde" unicode="~" 
d="M1057 1161q0 -158 -89 -252t-243 -94q-80 0 -139 33t-85 71q-70 103 -120 103q-78 0 -78 -156h-233v49q0 158 89 252t242 95q79 0 139 -33t87 -71t57 -71t64 -32q78 0 77 153h232v-47z" />
    <glyph glyph-name="nbspace" unicode="&#xa0;" horiz-adv-x="446" 
 />
    <glyph glyph-name="exclamdown" unicode="&#xa1;" horiz-adv-x="661" 
d="M498 -438h-367l45 1044h270zM315 1042q77 0 131 -51t54 -126t-54 -126t-131 -51q-78 0 -131 51t-53 126t53 126t131 51z" />
    <glyph glyph-name="cent" unicode="&#xa2;" 
d="M768 0h-233v195q-193 23 -292 149t-99 318t100 321q102 129 291 174v174h233v-164q94 -6 195 -39l-64 -249q-83 39 -191 39t-174 -64t-65 -172q0 -108 66 -168q67 -60 177 -61q110 0 191 47l74 -248q-84 -41 -209 -57v-195z" />
    <glyph glyph-name="sterling" unicode="&#xa3;" 
d="M1016 0h-883v211q143 111 143 256q0 39 -6 76h-180v241h150q-12 102 -13 142q0 432 484 432q123 0 258 -33l-64 -262q-111 37 -209 37q-154 0 -153 -152q0 -35 14 -164h297v-241h-268q6 -31 6 -70q0 -123 -94 -211q90 4 141 4h377v-266z" />
    <glyph glyph-name="currency" unicode="&#xa4;" 
d="M721 684q0 182 -158 182q-65 0 -111 -49t-46 -138t38 -140t112 -51q73 0 119 48t46 148zM556 262q-60 0 -107 10l-140 -190l-243 172l133 168q-61 96 -61 242t71 247l-143 185l241 170l144 -193q130 38 243 4l137 191l240 -174l-133 -172q51 -90 51 -228t-69 -245
l151 -195l-242 -174l-151 205q-62 -23 -122 -23z" />
    <glyph glyph-name="yen" unicode="&#xa5;" 
d="M1024 686v-194h-303v-105h303v-194h-303v-193h-315v193h-306v194h306v105h-306v194h230l-307 645h344l127 -295q18 -45 69 -190h4q23 68 76 192l125 293h336l-309 -645h229z" />
    <glyph glyph-name="brokenbar" unicode="&#xa6;" horiz-adv-x="593" 
d="M416 -485h-248v774h248v-774zM416 809h-248v754h248v-754z" />
    <glyph glyph-name="section" unicode="&#xa7;" horiz-adv-x="1097" 
d="M385 686q0 -70 52 -130t204 -183q51 40 51 109t-48 123q-48 53 -112 108q-65 55 -96 84q-51 -41 -51 -111zM971 521q0 -89 -43 -169t-113 -131q76 -94 76 -227q0 -132 -125 -236t-387 -104q-88 0 -176 20l20 260q70 -22 157 -22t130 29t43 73t-46 92t-113 96
q-66 48 -132 105t-112 147t-46 195q0 190 156 299q-76 92 -76 213q0 154 115 253t356 99q104 0 176 -14l-14 -260q-68 20 -147 21q-150 0 -150 -93q0 -66 117 -152q234 -172 300 -326q34 -79 34 -168z" />
    <glyph glyph-name="dieresis" unicode="&#xa8;" horiz-adv-x="1118" 
d="M327 1483q67 0 113 -48t47 -115q0 -67 -47 -114q-48 -47 -114 -47t-114 47t-48 114t48 115t115 48zM755 1483q67 0 113 -48t47 -115q0 -67 -47 -114q-48 -47 -114 -47t-114 47t-48 114t48 115t115 48z" />
    <glyph glyph-name="copyright" unicode="&#xa9;" horiz-adv-x="1566" 
d="M825 846q-127 0 -127 -156t117 -158q74 0 131 29l43 -196q-91 -45 -227 -45t-226 96t-92 259q0 163 92 268t269 106q98 0 174 -35l-37 -201q-39 33 -117 33zM783 203q197 0 337 140t140 338t-140 338t-337 140q-198 0 -338 -139t-140 -337t140 -339t338 -141zM1491 683
q0 -294 -208 -502t-503 -208q-294 0 -500 207t-206 501t208 502t502 208t500 -207q207 -207 207 -501z" />
    <glyph glyph-name="ordfeminine" unicode="&#xaa;" horiz-adv-x="845" 
d="M299 866q1 -57 77 -57q42 0 74 39q31 39 31 86v20q-182 0 -182 -88zM762 311h-670v242h670v-242zM498 641q0 53 8 96h-2q-25 -51 -83 -84t-124 -32q-113 0 -170 58t-57 152q0 141 115 209q116 68 296 68v27q1 77 -111 77t-229 -55l-24 201q131 47 297 47t238 -68t73 -176
l-2 -348q0 -53 4 -172h-229z" />
    <glyph glyph-name="guillemotleft" unicode="&#xab;" 
d="M537 287l-254 -107l-213 418l217 420l245 -105l-165 -315zM1030 303l-246 -110l-235 405l242 408l235 -107l-180 -301z" />
    <glyph glyph-name="logicalnot" unicode="&#xac;" 
d="M1012 184h-279v295h-657v262h936v-557z" />
    <glyph glyph-name="registered" unicode="&#xae;" horiz-adv-x="1157" 
d="M559 1120q57 0 57 45t-51 45h-26v-90h20zM539 1026v-160h-138v449h207q164 0 164 -129q0 -92 -78 -127q14 -14 27 -49l57 -144h-164l-57 160h-18zM893 1087q0 131 -92 225t-223 93q-132 0 -224 -92t-92 -223q0 -130 92 -224t224 -94t223 92q92 92 92 223zM1075 1090
q0 -206 -145 -348t-353 -142t-353 141q-144 141 -144 347t145 348q145 141 353 141t353 -141q144 -141 144 -346z" />
    <glyph glyph-name="macron" unicode="&#xaf;" horiz-adv-x="808" 
d="M692 1204h-575v226h575v-226z" />
    <glyph glyph-name="degree" unicode="&#xb0;" horiz-adv-x="811" 
d="M498 1212q0 46 -26 78t-71 33q-45 0 -73 -31t-29 -81q0 -49 27 -79q26 -30 72 -30t73 32t27 78zM72 1208q0 138 100 222t246 84t227 -85q80 -84 80 -221t-99 -219q-98 -82 -242 -82t-228 81t-84 220z" />
    <glyph glyph-name="plusminus" unicode="&#xb1;" 
d="M1040 0h-954v260h954v-260zM1051 723h-338v-356h-299v356h-338v258h338v356h299v-356h338v-258z" />
    <glyph glyph-name="twosuperior" unicode="&#xb2;" horiz-adv-x="667" 
d="M582 721h-500v170l96 78q117 92 117 143q-1 51 -59 51t-115 -30l-35 180q114 41 236 41t184 -56t63 -145q0 -90 -139 -207l-47 -39h199v-186z" />
    <glyph glyph-name="threesuperior" unicode="&#xb3;" horiz-adv-x="645" 
d="M569 905q0 -98 -83 -152t-244 -55q-78 0 -164 19l20 149q53 -16 105 -16q96 0 96 57q0 78 -182 49v136h18q152 0 152 65q0 45 -67 45t-111 -26l-27 145q90 33 216 33t186 -48t61 -120q0 -106 -92 -150q51 -6 83 -45t33 -86z" />
    <glyph glyph-name="acute" unicode="&#xb4;" horiz-adv-x="811" 
d="M692 1348l-411 -215l-111 170l387 253z" />
    <glyph glyph-name="paragraph" unicode="&#xb6;" horiz-adv-x="1243" 
d="M604 449q-254 0 -381 132q-127 133 -127 341t142 334t366 126v-933zM1153 1130h-127v-1327h-397v252h137v1327h387v-252z" />
    <glyph glyph-name="periodcentered" unicode="&#xb7;" horiz-adv-x="598" 
d="M494 610q0 -80 -58 -137t-137 -57q-80 0 -137 57t-58 137q0 80 58 138t137 57q79 1 137 -57t58 -138z" />
    <glyph glyph-name="cedilla" unicode="&#xb8;" horiz-adv-x="819" 
d="M520 -80q152 -215 -39 -399h-229q74 87 79 157t-65 168z" />
    <glyph glyph-name="onesuperior" unicode="&#xb9;" horiz-adv-x="661" 
d="M496 721h-250v420l-129 -51l-41 174l186 67h234v-610z" />
    <glyph glyph-name="ordmasculine" unicode="&#xba;" horiz-adv-x="880" 
d="M434 836q131 0 131 179t-127 179q-53 0 -90 -44t-37 -134q0 -180 123 -180zM782 311h-688v242h688v-242zM811 1022q0 -180 -112 -290q-111 -110 -275 -110t-261 94t-97 284t112 298t277 109q356 0 356 -385z" />
    <glyph glyph-name="guillemotright" unicode="&#xbb;" 
d="M580 602l-242 -409l-238 108l181 301l-185 295l248 109zM1059 602l-219 -422l-246 105l166 317l-168 309l254 107z" />
    <glyph glyph-name="onequarter" unicode="&#xbc;" horiz-adv-x="1507" 
d="M496 721h-250v420l-129 -51l-41 174l186 67h234v-610zM1335 1235l-1032 -1284l-192 141l1030 1284zM1417 90h-84v-90h-217v90h-285l-16 156l197 364h321v-352h84v-168zM1118 256v217l-121 -217h121z" />
    <glyph glyph-name="onehalf" unicode="&#xbd;" horiz-adv-x="1511" 
d="M494 721h-250v420l-129 -51l-41 174l186 67h234v-610zM1333 1235l-1030 -1284l-194 141l1032 1284zM1411 0h-502v170l99 78q115 90 114 141q0 51 -59 51t-113 -28l-35 180q113 41 235 41t184 -55q62 -54 62 -146t-136 -207l-50 -39h201v-186z" />
    <glyph glyph-name="threequarters" unicode="&#xbe;" horiz-adv-x="1521" 
d="M582 905q0 -98 -83 -152t-245 -55q-94 0 -164 19l23 147q43 -14 102 -14q96 0 96 57q0 78 -182 49v136h18q152 0 152 65q0 45 -67 45t-111 -26l-25 145q90 33 215 33t185 -47t61 -121q0 -106 -92 -150q53 -6 85 -45t32 -86zM1350 1235l-1031 -1284l-194 141l1032 1284z
M1432 90h-84v-90h-218v90h-284l-17 156l197 364h322v-352h84v-168zM1133 256v217l-119 -217h119z" />
    <glyph glyph-name="questiondown" unicode="&#xbf;" horiz-adv-x="931" 
d="M78 -27q0 94 41 170t93 118q139 112 176 200q22 51 -1 145h305q48 -129 12 -226q-36 -96 -98 -146t-124 -110t-62 -118q0 -172 395 -182l-37 -283q-348 6 -524 130t-176 302zM719 865q0 -75 -53 -126t-131 -51t-132 51q-53 51 -53 126t53 126t131 51t132 -51
q53 -51 53 -126z" />
    <glyph glyph-name="Agrave" unicode="&#xc0;" horiz-adv-x="1296" 
d="M791 508l-107 315q-29 84 -53 193h-4q-31 -129 -52 -193l-106 -315h322zM1307 0h-351l-86 256h-477l-84 -256h-317l467 1382h362zM778 1622l-49 -168l-475 105l65 217z" />
    <glyph glyph-name="Aacute" unicode="&#xc1;" horiz-adv-x="1296" 
d="M791 508l-107 315q-29 84 -53 193h-4q-31 -129 -52 -193l-106 -315h322zM1307 0h-351l-86 256h-477l-84 -256h-317l467 1382h362zM969 1559l-477 -105l-48 168l459 154z" />
    <glyph glyph-name="Acircumflex" unicode="&#xc2;" horiz-adv-x="1296" 
d="M791 508l-107 315q-29 84 -53 193h-4q-31 -129 -52 -193l-106 -315h322zM1307 0h-351l-86 256h-477l-84 -256h-317l467 1382h362zM985 1602l-67 -148l-283 117l-281 -117l-65 145l348 181z" />
    <glyph glyph-name="Atilde" unicode="&#xc3;" horiz-adv-x="1296" 
d="M791 508l-107 315q-29 84 -53 193h-4q-31 -129 -52 -193l-106 -315h322zM1307 0h-351l-86 256h-477l-84 -256h-317l467 1382h362zM743 1481q-81 0 -153 45t-101 45q-66 0 -112 -84l-154 102q100 180 277 180q78 0 152 -45t102 -45q66 0 112 84l154 -102
q-104 -180 -277 -180z" />
    <glyph glyph-name="Adieresis" unicode="&#xc4;" horiz-adv-x="1296" 
d="M791 508l-107 315q-29 84 -53 193h-4q-31 -129 -52 -193l-106 -315h322zM1307 0h-351l-86 256h-477l-84 -256h-317l467 1382h362zM551 1618q0 -57 -42 -99t-99 -42t-100 42q-42 42 -42 99t42 99t100 42t99 -42q42 -42 42 -99zM993 1618q0 -59 -41 -100t-99 -41t-100 42
t-42 99t42 99t100 42t99 -41t41 -100z" />
    <glyph glyph-name="Aring" unicode="&#xc5;" horiz-adv-x="1296" 
d="M791 508l-97 278q-47 131 -63 226h-4q-25 -123 -66 -242l-90 -262h320zM642 1366q42 0 72 30t31 73q0 42 -30 73q-31 31 -73 31t-73 -31t-31 -73q0 -43 32 -73q30 -30 72 -30zM362 1476q0 106 82 183q82 76 199 76t198 -76q81 -77 81 -183t-72 -178l457 -1298h-351
l-86 256h-477l-84 -256h-317l440 1300q-70 70 -70 176z" />
    <glyph glyph-name="AE" unicode="&#xc6;" horiz-adv-x="1613" 
d="M748 535v579h-5q-72 -186 -122 -293l-138 -286h265zM1518 0h-770v287h-369l-127 -287h-324l652 1382h925v-268h-452v-274h436v-260h-436v-306h465v-274z" />
    <glyph glyph-name="Ccedilla" unicode="&#xc7;" horiz-adv-x="1136" 
d="M748 -80q152 -215 -39 -399h-230q74 87 79 157t-64 168zM717 -18q-185 0 -317 57t-202 157q-133 190 -130 445q0 344 182 548t518 204q160 0 283 -39l-41 -291q-116 43 -264 43t-238 -111t-90 -301q0 -422 360 -422q133 0 236 52l45 -283q-158 -59 -342 -59z" />
    <glyph glyph-name="Egrave" unicode="&#xc8;" horiz-adv-x="997" 
d="M901 0h-778v1382h778v-268h-459v-274h435v-260h-435v-306h459v-274zM686 1622l-47 -168l-477 105l65 217z" />
    <glyph glyph-name="Eacute" unicode="&#xc9;" horiz-adv-x="997" 
d="M901 0h-778v1382h778v-268h-459v-274h435v-260h-435v-306h459v-274zM881 1559l-478 -105l-47 168l459 154z" />
    <glyph glyph-name="Ecircumflex" unicode="&#xca;" horiz-adv-x="997" 
d="M901 0h-778v1382h778v-268h-459v-274h435v-260h-435v-306h459v-274zM854 1602l-68 -148l-282 117l-281 -117l-65 145l348 181z" />
    <glyph glyph-name="Edieresis" unicode="&#xcb;" horiz-adv-x="997" 
d="M901 0h-778v1382h778v-268h-459v-274h435v-260h-435v-306h459v-274zM424 1618q0 -57 -42 -99t-99 -42t-100 42q-42 42 -42 99t42 99q41 42 99 42t100 -42t42 -99zM868 1618q0 -57 -41 -99t-100 -42t-100 41t-41 100t41 100t100 41t100 -42t41 -99z" />
    <glyph glyph-name="Igrave" unicode="&#xcc;" horiz-adv-x="565" 
d="M442 0h-319v1382h319v-1382zM487 1622l-47 -168l-477 105l66 217z" />
    <glyph glyph-name="Iacute" unicode="&#xcd;" horiz-adv-x="565" 
d="M442 0h-319v1382h319v-1382zM592 1559l-475 -105l-49 168l458 154z" />
    <glyph glyph-name="Icircumflex" unicode="&#xce;" horiz-adv-x="565" 
d="M442 0h-319v1382h319v-1382zM631 1602l-68 -148l-282 117l-281 -117l-66 145l349 181z" />
    <glyph glyph-name="Idieresis" unicode="&#xcf;" horiz-adv-x="565" 
d="M442 0h-319v1382h319v-1382zM197 1618q0 -57 -41 -99q-40 -42 -100 -42t-101 42t-41 99t41 99t100 42t101 -42t41 -99zM641 1618q0 -57 -42 -99t-99 -42t-100 42q-42 42 -42 99t42 99t100 42t99 -42q42 -42 42 -99z" />
    <glyph glyph-name="Eth" unicode="&#xd0;" horiz-adv-x="1363" 
d="M575 264q171 0 277 108t106 320q0 211 -82 321q-83 110 -288 109q-96 0 -133 -4v-301h219v-239h-219v-306q33 -8 120 -8zM1298 719q0 -348 -203 -539q-204 -190 -550 -190q-150 0 -404 12v576h-135v239h135v561q213 12 467 13q690 0 690 -672z" />
    <glyph glyph-name="Ntilde" unicode="&#xd1;" horiz-adv-x="1419" 
d="M1296 0h-407l-326 596q-80 150 -143 303q10 -170 10 -373v-526h-307v1382h409l304 -546q72 -131 168 -340q-14 166 -15 432v454h307v-1382zM811 1481q-78 0 -152 45t-102 45q-66 0 -113 -84l-153 102q104 180 276 180q80 0 154 -45t102 -45q63 0 111 84l153 -102
q-104 -180 -276 -180z" />
    <glyph glyph-name="Ograve" unicode="&#xd2;" horiz-adv-x="1437" 
d="M395 700q0 -206 79 -320q78 -114 224 -114t245 106t99 317q0 212 -83 321q-83 108 -229 108t-240 -106t-95 -312zM1380 720q0 -341 -196 -544t-500 -203q-305 1 -466 185t-161 515t198 533q197 202 487 203q290 0 464 -174t174 -515zM920 1622l-48 -168l-475 105l66 217z
" />
    <glyph glyph-name="Oacute" unicode="&#xd3;" horiz-adv-x="1437" 
d="M395 700q0 -206 79 -320q78 -114 224 -114t245 106t99 317q0 212 -83 321q-83 108 -229 108t-240 -106t-95 -312zM1380 720q0 -341 -196 -544t-500 -203q-305 1 -466 185t-161 515t198 533q197 202 487 203q290 0 464 -174t174 -515zM1071 1559l-477 -105l-47 168
l459 154z" />
    <glyph glyph-name="Ocircumflex" unicode="&#xd4;" horiz-adv-x="1437" 
d="M395 700q0 -206 79 -320q78 -114 224 -114t245 106t99 317q0 212 -83 321q-83 108 -229 108t-240 -106t-95 -312zM1380 720q0 -341 -196 -544t-500 -203q-305 1 -466 185t-161 515t198 533q197 202 487 203q290 0 464 -174t174 -515zM1098 1602l-68 -148l-282 117
l-281 -117l-68 145l349 181z" />
    <glyph glyph-name="Otilde" unicode="&#xd5;" horiz-adv-x="1437" 
d="M395 700q0 -206 79 -320q78 -114 224 -114t245 106t99 317q0 212 -83 321q-83 108 -229 108t-240 -106t-95 -312zM1380 720q0 -341 -196 -544t-500 -203q-305 1 -466 185t-161 515t198 533q197 202 487 203q290 0 464 -174t174 -515zM831 1481q-77 0 -151 45t-102 45
q-66 0 -113 -84l-154 102q100 180 277 180q80 0 152 -45t102 -45q66 0 112 84l154 -102q-104 -180 -277 -180z" />
    <glyph glyph-name="Odieresis" unicode="&#xd6;" horiz-adv-x="1437" 
d="M395 700q0 -206 79 -320q78 -114 224 -114t245 106t99 317q0 212 -83 321q-83 108 -229 108t-240 -106t-95 -312zM1380 720q0 -341 -196 -544t-500 -203q-305 1 -466 185t-161 515t198 533q197 202 487 203q290 0 464 -174t174 -515zM653 1618q0 -57 -42 -99t-99 -42
t-99 42t-42 99t42 99t99 42t99 -42t42 -99zM1096 1618q0 -57 -42 -99t-100 -42t-99 42q-42 42 -42 99t42 99t99 42q58 0 100 -42t42 -99z" />
    <glyph glyph-name="multiply" unicode="&#xd7;" 
d="M1042 322l-192 -193l-299 299l-295 -299l-172 172l297 297l-297 297l192 192l297 -296l297 296l172 -172l-299 -294z" />
    <glyph glyph-name="Oslash" unicode="&#xd8;" horiz-adv-x="1437" 
d="M381 700q0 -229 90 -325l262 749q-59 0 -100 -12q-113 -27 -183 -133t-69 -279zM1057 712q0 220 -105 318l-268 -770q33 -6 76 -2q125 16 211 124q86 110 86 330zM1380 711q0 -334 -194 -536t-494 -202q-57 0 -100 9l-68 -199l-229 72l65 190q-303 160 -303 629
q0 330 197 532t489 203q39 0 82 -6l64 188l231 -69l-61 -179q321 -157 321 -632z" />
    <glyph glyph-name="Ugrave" unicode="&#xd9;" horiz-adv-x="1378" 
d="M1255 543q-1 -287 -153 -428t-452 -141t-415 147q-114 148 -112 366v895h319v-876q0 -131 54 -198q54 -66 192 -66q137 0 195 64q57 65 57 218v858h315v-839zM850 1622l-49 -168l-475 105l65 217z" />
    <glyph glyph-name="Uacute" unicode="&#xda;" horiz-adv-x="1378" 
d="M1255 543q-1 -287 -153 -428t-452 -141t-415 147q-114 148 -112 366v895h319v-876q0 -131 54 -198q54 -66 192 -66q137 0 195 64q57 65 57 218v858h315v-839zM1057 1559l-477 -105l-48 168l459 154z" />
    <glyph glyph-name="Ucircumflex" unicode="&#xdb;" horiz-adv-x="1378" 
d="M1255 543q-1 -287 -153 -428t-452 -141t-415 147q-114 148 -112 366v895h319v-876q0 -131 54 -198q54 -66 192 -66q137 0 195 64q57 65 57 218v858h315v-839zM1040 1602l-67 -148l-283 117l-280 -117l-66 145l348 181z" />
    <glyph glyph-name="Udieresis" unicode="&#xdc;" horiz-adv-x="1378" 
d="M1255 543q-1 -287 -153 -428t-452 -141t-415 147q-114 148 -112 366v895h319v-876q0 -131 54 -198q54 -66 192 -66q137 0 195 64q57 65 57 218v858h315v-839zM596 1618q0 -57 -42 -99t-99 -42t-100 42q-42 42 -42 99t42 99q41 42 99 42t100 -42t42 -99zM1040 1618
q0 -57 -41 -99t-100 -42t-100 42t-41 99t41 99t100 42t100 -42t41 -99z" />
    <glyph glyph-name="Yacute" unicode="&#xdd;" horiz-adv-x="1183" 
d="M748 0h-320v481l-432 901h348l158 -352q55 -123 88 -221h4q27 80 106 250l150 323h336l-438 -899v-483zM940 1559l-477 -105l-47 168l458 154z" />
    <glyph glyph-name="Thorn" unicode="&#xde;" horiz-adv-x="1132" 
d="M776 720q0 106 -58 164q-58 60 -183 60q-27 0 -93 -4v-434q41 -8 103 -8q102 0 167 58q64 58 64 164zM1106 748q0 -222 -157 -365t-419 -143q-61 0 -88 2v-242h-319v1382h319v-182q74 4 136 4q250 0 389 -117t139 -339z" />
    <glyph glyph-name="germandbls" unicode="&#xdf;" horiz-adv-x="1263" 
d="M1212 332q0 -162 -122 -260t-312 -99q-139 0 -227 35l14 252q90 -47 189 -47q133 0 133 90q0 67 -119 135q-49 29 -99 64q-50 36 -85 100t-35 147t32 145t69 96q102 91 102 181q0 98 -129 99q-91 0 -141 -64t-50 -188v-1018h-311v1004q0 260 143 384q142 124 356 124
t336 -86q122 -85 123 -236q1 -86 -33 -148t-73 -92q-107 -80 -107 -157q0 -41 36 -75t86 -65t102 -67q50 -36 86 -102t36 -152z" />
    <glyph glyph-name="agrave" unicode="&#xe0;" horiz-adv-x="1077" 
d="M754 1303l-109 -170l-412 215l136 208zM639 410v32q-279 0 -279 -131q0 -41 28 -69t90 -27t111 59q50 58 50 136zM668 0q0 102 8 154h-2q-37 -80 -121 -128t-208 -48t-202 84q-78 85 -77 217q0 184 154 272q155 88 419 88v41q0 66 -42 96q-43 30 -161 29q-118 0 -260 -68
l-53 244q185 63 409 63t322 -88t98 -266v-448q1 -136 9 -242h-293z" />
    <glyph glyph-name="aacute" unicode="&#xe1;" horiz-adv-x="1077" 
d="M858 1348l-412 -215l-110 170l387 253zM639 410v32q-279 0 -279 -131q0 -41 28 -69t90 -27t111 59q50 58 50 136zM668 0q0 102 8 154h-2q-37 -80 -121 -128t-208 -48t-202 84q-78 85 -77 217q0 184 154 272q155 88 419 88v41q0 66 -42 96q-43 30 -161 29q-118 0 -260 -68
l-53 244q185 63 409 63t322 -88t98 -266v-448q1 -136 9 -242h-293z" />
    <glyph glyph-name="acircumflex" unicode="&#xe2;" horiz-adv-x="1077" 
d="M877 1274l-117 -141l-217 161l-217 -161l-117 141l334 282zM639 410v32q-279 0 -279 -131q0 -41 28 -69t90 -27t111 59q50 58 50 136zM668 0q0 102 8 154h-2q-37 -80 -121 -128t-208 -48t-202 84q-78 85 -77 217q0 184 154 272q155 88 419 88v41q0 66 -42 96
q-43 30 -161 29q-118 0 -260 -68l-53 244q185 63 409 63t322 -88t98 -266v-448q1 -136 9 -242h-293z" />
    <glyph glyph-name="atilde" unicode="&#xe3;" horiz-adv-x="1077" 
d="M645 1167q-77 -1 -147 49t-99 50q-59 0 -108 -90l-146 110q98 199 265 199q76 0 148 -49t99 -50q59 0 107 91l145 -111q-94 -199 -264 -199zM639 410v32q-279 0 -279 -131q0 -41 28 -69t90 -27t111 59q50 58 50 136zM668 0q0 102 8 154h-2q-37 -80 -121 -128t-208 -48
t-202 84q-78 85 -77 217q0 184 154 272q155 88 419 88v41q0 66 -42 96q-43 30 -161 29q-118 0 -260 -68l-53 244q185 63 409 63t322 -88t98 -266v-448q1 -136 9 -242h-293z" />
    <glyph glyph-name="adieresis" unicode="&#xe4;" horiz-adv-x="1077" 
d="M327 1483q67 0 113 -48t47 -115q0 -67 -47 -114q-48 -47 -114 -47t-114 47t-48 114t48 115t115 48zM755 1483q67 0 113 -48t47 -115q0 -67 -47 -114q-48 -47 -114 -47t-114 47t-48 114t48 115t115 48zM639 410v32q-279 0 -279 -131q0 -41 28 -69t90 -27t111 59
q50 58 50 136zM668 0q0 102 8 154h-2q-37 -80 -121 -128t-208 -48t-202 84q-78 85 -77 217q0 184 154 272q155 88 419 88v41q0 66 -42 96q-43 30 -161 29q-118 0 -260 -68l-53 244q185 63 409 63t322 -88t98 -266v-448q1 -136 9 -242h-293z" />
    <glyph glyph-name="aring" unicode="&#xe5;" horiz-adv-x="1077" 
d="M637 1373q0 42 -30 73q-31 31 -73 31t-72 -31t-30 -73t30 -73q30 -30 73 -30t73 30t29 73zM813 1373q0 -113 -81 -189q-82 -76 -198 -76t-197 75t-81 189t81 191q81 75 198 75t197 -76t81 -189zM639 410v32q-279 0 -279 -131q0 -41 28 -69t90 -27t111 59q50 58 50 136z
M668 0q0 102 8 154h-2q-37 -80 -121 -128t-208 -48t-202 84q-78 85 -77 217q0 184 154 272q155 88 419 88v41q0 66 -42 96q-43 30 -161 29q-118 0 -260 -68l-53 244q185 63 409 63t322 -88t98 -266v-448q1 -136 9 -242h-293z" />
    <glyph glyph-name="ae" unicode="&#xe6;" horiz-adv-x="1630" 
d="M639 410v32q-279 0 -279 -131q0 -41 28 -69t90 -27t111 59q50 58 50 136zM1113 815q-69 0 -114 -49t-53 -129h309q2 86 -35 132q-38 46 -107 46zM1561 569q0 -76 -11 -139h-604q0 -211 252 -211q152 0 297 64l31 -236q-172 -70 -354 -70q-343 0 -437 193h-2
q-111 -193 -366 -193q-143 0 -223 85q-79 85 -78 217q0 184 154 272q155 88 419 88v41q0 66 -42 96q-43 30 -161 29q-118 0 -260 -68l-53 244q184 63 398 63t313 -108h2q102 106 302 106t312 -131q111 -131 111 -342z" />
    <glyph glyph-name="ccedilla" unicode="&#xe7;" horiz-adv-x="856" 
d="M571 -80q152 -215 -39 -399h-229q74 87 79 157t-65 168zM61 477q-1 246 135 405t398 158q104 0 207 -32l-47 -271q-80 35 -172 35t-144 -72t-51 -198q0 -252 205 -252q100 0 172 35l37 -262q-119 -45 -273 -46q-231 0 -349 127t-118 373z" />
    <glyph glyph-name="egrave" unicode="&#xe8;" horiz-adv-x="1062" 
d="M772 1303l-108 -170l-412 215l135 208zM544 815q-68 0 -114 -49q-45 -49 -53 -129h309q2 86 -36 132t-106 46zM993 569q0 -53 -10 -139h-606q4 -211 252 -211q154 0 299 64l30 -236q-172 -70 -380 -70q-516 0 -517 521q0 242 129 394q130 152 356 150q226 0 336 -131
t111 -342z" />
    <glyph glyph-name="eacute" unicode="&#xe9;" horiz-adv-x="1062" 
d="M874 1348l-411 -215l-111 170l387 253zM544 815q-68 0 -114 -49q-45 -49 -53 -129h309q2 86 -36 132t-106 46zM993 569q0 -53 -10 -139h-606q4 -211 252 -211q154 0 299 64l30 -236q-172 -70 -380 -70q-516 0 -517 521q0 242 129 394q130 152 356 150q226 0 336 -131
t111 -342z" />
    <glyph glyph-name="ecircumflex" unicode="&#xea;" horiz-adv-x="1062" 
d="M877 1274l-117 -141l-217 161l-217 -161l-117 141l334 282zM544 815q-68 0 -114 -49q-45 -49 -53 -129h309q2 86 -36 132t-106 46zM993 569q0 -53 -10 -139h-606q4 -211 252 -211q154 0 299 64l30 -236q-172 -70 -380 -70q-516 0 -517 521q0 242 129 394q130 152 356 150
q226 0 336 -131t111 -342z" />
    <glyph glyph-name="edieresis" unicode="&#xeb;" horiz-adv-x="1062" 
d="M500 1320q0 -67 -47 -114t-114 -47t-115 47t-48 114t48 115t115 48t114 -48t47 -115zM928 1320q0 -67 -47 -114t-114 -47t-115 47t-48 114t48 115t115 48t114 -48t47 -115zM544 815q-68 0 -114 -49q-45 -49 -53 -129h309q2 86 -36 132t-106 46zM993 569q0 -53 -10 -139
h-606q4 -211 252 -211q154 0 299 64l30 -236q-172 -70 -380 -70q-516 0 -517 521q0 242 129 394q130 152 356 150q226 0 336 -131t111 -342z" />
    <glyph glyph-name="igrave" unicode="&#xec;" horiz-adv-x="555" 
d="M539 1303l-109 -170l-412 215l136 208zM432 0h-311v1018h311v-1018z" />
    <glyph glyph-name="iacute" unicode="&#xed;" horiz-adv-x="555" 
d="M520 1348l-411 -215l-111 170l387 253zM432 0h-311v1018h311v-1018z" />
    <glyph glyph-name="icircumflex" unicode="&#xee;" horiz-adv-x="555" 
d="M612 1274l-116 -141l-217 161l-218 -161l-116 141l334 282zM432 0h-311v1018h311v-1018z" />
    <glyph glyph-name="idieresis" unicode="&#xef;" horiz-adv-x="555" 
d="M67 1483q67 0 113 -48t47 -115q0 -67 -47 -114q-48 -47 -114 -47t-114 47t-48 114t48 115t115 48zM495 1483q67 0 113 -48t47 -115q0 -67 -47 -114q-48 -47 -114 -47t-114 47t-48 114t48 115t115 48zM432 0h-311v1018h311v-1018z" />
    <glyph glyph-name="eth" unicode="&#xf0;" horiz-adv-x="1146" 
d="M756 532q0 114 -47 178t-133 64t-140 -66q-53 -66 -53 -196q0 -129 51 -197t141 -67q181 -1 181 284zM1079 578q0 -291 -147 -446q-146 -155 -374 -155t-363 128t-135 378t142 401q144 151 357 150q90 0 127 -43q-19 38 -43 70q-33 55 -94 119l-176 -78l-123 141l156 68
q-61 51 -148 106l303 127q82 -63 131 -112l168 71l123 -139l-164 -70q260 -319 260 -716z" />
    <glyph glyph-name="ntilde" unicode="&#xf1;" horiz-adv-x="1163" 
d="M702 1167q-76 -1 -146 49t-99 50q-59 0 -109 -90l-145 110q98 199 264 199q75 0 147 -49t101 -50q59 0 106 91l146 -111q-94 -199 -265 -199zM1040 0h-311v647q0 131 -94 131q-82 0 -142 -86t-61 -198v-494h-311v1018h291q0 -100 -13 -160l2 -2q111 184 338 184
q160 0 231 -89t70 -234v-717z" />
    <glyph glyph-name="ograve" unicode="&#xf2;" horiz-adv-x="1142" 
d="M799 1303l-109 -170l-411 215l135 208zM760 512q0 262 -185 262q-82 0 -138 -64t-56 -190q0 -272 188 -272q86 0 139 69q52 70 52 195zM1083 532q1 -248 -151 -402t-384 -153q-232 0 -362 123q-129 123 -129 378t152 409q151 153 387 153t362 -130t125 -378z" />
    <glyph glyph-name="oacute" unicode="&#xf3;" horiz-adv-x="1142" 
d="M901 1348l-412 -215l-110 170l387 253zM760 512q0 262 -185 262q-82 0 -138 -64t-56 -190q0 -272 188 -272q86 0 139 69q52 70 52 195zM1083 532q1 -248 -151 -402t-384 -153q-232 0 -362 123q-129 123 -129 378t152 409q151 153 387 153t362 -130t125 -378z" />
    <glyph glyph-name="ocircumflex" unicode="&#xf4;" horiz-adv-x="1142" 
d="M915 1274l-116 -141l-217 161l-217 -161l-117 141l334 282zM760 512q0 262 -185 262q-82 0 -138 -64t-56 -190q0 -272 188 -272q86 0 139 69q52 70 52 195zM1083 532q1 -248 -151 -402t-384 -153q-232 0 -362 123q-129 123 -129 378t152 409q151 153 387 153t362 -130
t125 -378z" />
    <glyph glyph-name="otilde" unicode="&#xf5;" horiz-adv-x="1142" 
d="M696 1167q-76 -1 -146 49t-99 50q-59 0 -109 -90l-145 110q98 199 264 199q75 0 147 -49t101 -50q59 0 106 91l146 -111q-94 -199 -265 -199zM760 512q0 262 -185 262q-82 0 -138 -64t-56 -190q0 -272 188 -272q86 0 139 69q52 70 52 195zM1083 532q1 -248 -151 -402
t-384 -153q-232 0 -362 123q-129 123 -129 378t152 409q151 153 387 153t362 -130t125 -378z" />
    <glyph glyph-name="odieresis" unicode="&#xf6;" horiz-adv-x="1142" 
d="M372 1483q68 0 114 -48t46 -115t-47 -114t-113 -47t-115 47q-48 47 -48 114t48 115t115 48zM800 1483q67 0 114 -48t47 -115q1 -67 -47 -114t-114 -47t-115 47q-48 47 -48 114t48 115t115 48zM760 512q0 262 -185 262q-82 0 -138 -64t-56 -190q0 -272 188 -272
q86 0 139 69q52 70 52 195zM1083 532q1 -248 -151 -402t-384 -153q-232 0 -362 123q-129 123 -129 378t152 409q151 153 387 153t362 -130t125 -378z" />
    <glyph glyph-name="divide" unicode="&#xf7;" 
d="M745 199q0 -76 -53 -130q-53 -55 -129 -55t-130 54t-54 131q0 76 54 130t130 54t129 -54t53 -130zM1051 479h-975v262h975v-262zM745 1020q0 -76 -53 -130t-129 -54t-130 54t-54 130t54 130t130 54t129 -54t53 -130z" />
    <glyph glyph-name="oslash" unicode="&#xf8;" horiz-adv-x="1142" 
d="M352 520q0 -135 43 -194l178 462q-23 2 -51 -4q-170 -39 -170 -264zM791 509q0 126 -56 206l-186 -479q37 -4 59 -3q80 12 132 81t51 195zM1083 530q-1 -246 -153 -400t-383 -153q-39 0 -92 9l-82 -207l-172 53l78 201q-221 117 -222 452q0 252 152 404t387 151
q47 0 74 -4l73 191l175 -51l-72 -185q237 -125 237 -461z" />
    <glyph glyph-name="ugrave" unicode="&#xf9;" horiz-adv-x="1159" 
d="M766 1303l-109 -170l-411 215l135 208zM1040 0h-290q0 100 12 160l-4 2q-106 -184 -336 -185q-160 -1 -232 89t-71 235v717h313v-647q0 -131 94 -131q82 0 142 86q59 86 59 198v494h313v-1018z" />
    <glyph glyph-name="uacute" unicode="&#xfa;" horiz-adv-x="1159" 
d="M938 1348l-412 -215l-110 170l387 253zM1040 0h-290q0 100 12 160l-4 2q-106 -184 -336 -185q-160 -1 -232 89t-71 235v717h313v-647q0 -131 94 -131q82 0 142 86q59 86 59 198v494h313v-1018z" />
    <glyph glyph-name="ucircumflex" unicode="&#xfb;" horiz-adv-x="1159" 
d="M907 1274l-116 -141l-218 161l-217 -161l-116 141l333 282zM1040 0h-290q0 100 12 160l-4 2q-106 -184 -336 -185q-160 -1 -232 89t-71 235v717h313v-647q0 -131 94 -131q82 0 142 86q59 86 59 198v494h313v-1018z" />
    <glyph glyph-name="udieresis" unicode="&#xfc;" horiz-adv-x="1159" 
d="M512 1320q0 -67 -47 -114t-114 -47t-115 47t-48 114t48 115t116 48q66 0 113 -48t47 -115zM940 1320q0 -67 -47 -114t-114 -47t-115 47t-48 114t48 115t116 48q66 0 113 -48t47 -115zM1040 0h-290q0 100 12 160l-4 2q-106 -184 -336 -185q-160 -1 -232 89t-71 235v717
h313v-647q0 -131 94 -131q82 0 142 86q59 86 59 198v494h313v-1018z" />
    <glyph glyph-name="yacute" unicode="&#xfd;" horiz-adv-x="1056" 
d="M920 1348l-412 -215l-111 170l387 253zM1059 1018l-395 -1057q-100 -264 -222 -363t-311 -100q-82 0 -158 15l35 266q68 -20 135 -21q154 0 207 166l25 76l-369 1018h344l103 -297q39 -109 82 -297h2q37 154 96 328l92 266h334z" />
    <glyph glyph-name="thorn" unicode="&#xfe;" horiz-adv-x="1144" 
d="M752 532q0 250 -140 250q-80 0 -130 -82t-50 -211v-249q49 -12 109 -13q211 0 211 305zM1081 565q0 -270 -138 -426t-406 -155q-61 0 -105 8v-477h-311v1980h311v-397q0 -133 -8 -197l4 -2q84 141 272 141t285 -126q96 -126 96 -349z" />
    <glyph glyph-name="ydieresis" unicode="&#xff;" horiz-adv-x="1056" 
d="M323 1483q67 0 113 -48t47 -115q0 -67 -47 -114q-48 -47 -114 -47t-114 47t-48 114t48 115t115 48zM751 1483q67 0 113 -48t47 -115q0 -67 -47 -114q-48 -47 -114 -47t-114 47t-48 114t48 115t115 48zM1059 1018l-395 -1057q-100 -264 -222 -363t-311 -100q-82 0 -158 15
l35 266q68 -20 135 -21q154 0 207 166l25 76l-369 1018h344l103 -297q39 -109 82 -297h2q37 154 96 328l92 266h334z" />
    <glyph glyph-name="dotlessi" unicode="&#x131;" horiz-adv-x="555" 
d="M432 0h-311v1018h311v-1018z" />
    <glyph glyph-name="Lslash" unicode="&#x141;" horiz-adv-x="892" 
d="M874 0h-735v510l-121 -37l-38 238l159 47v624h318v-540l188 55l39 -240l-227 -65v-309h417v-283z" />
    <glyph glyph-name="lslash" unicode="&#x142;" horiz-adv-x="622" 
d="M465 0h-311v524l-138 -39l-20 238l158 47v725h311v-643l141 41l19 -240l-160 -47v-606z" />
    <glyph glyph-name="OE" unicode="&#x152;" horiz-adv-x="1757" 
d="M395 700q0 -206 79 -320t239 -114q82 0 170 35v791q-76 27 -164 26q-135 0 -229 -106t-95 -312zM1661 0h-746q-125 -27 -221 -27q-315 1 -476 185t-161 515t196 533t478 203q111 0 221 -27h709v-268h-459v-274h434v-260h-434v-306h459v-274z" />
    <glyph glyph-name="oe" unicode="&#x153;" horiz-adv-x="1742" 
d="M760 512q0 262 -185 262q-82 0 -138 -64t-56 -190q0 -272 188 -272q86 0 139 69q52 70 52 195zM1226 815q-68 0 -114 -49q-45 -49 -53 -129h309q2 86 -36 132t-106 46zM1059 430q0 -211 265 -211q139 0 284 64l30 -236q-172 -70 -397 -70t-352 140q-125 -139 -349 -139
t-354 122q-129 123 -129 378t151 409q151 153 374 153t338 -122q120 124 326 124t316 -131t111 -342q0 -72 -8 -139h-606z" />
    <glyph glyph-name="Scaron" unicode="&#x160;" horiz-adv-x="1028" 
d="M973 438q0 -201 -154 -332t-395 -131q-186 0 -330 37l31 303q150 -61 307 -61q82 0 135 36t53 103t-56 109q-58 42 -139 70t-162 66t-138 123t-57 214q0 199 144 315t402 117q137 0 252 -27l-28 -278q-117 41 -238 41q-190 0 -190 -131q0 -56 58 -98t141 -72t165 -73
q82 -42 140 -126t59 -205zM868 1634l-348 -180l-348 178l68 148l282 -117l281 117z" />
    <glyph glyph-name="scaron" unicode="&#x161;" horiz-adv-x="841" 
d="M770 1415l-334 -282l-332 282l117 141l217 -161l217 161zM776 326q0 -160 -126 -254t-335 -95q-123 0 -225 29l16 254q94 -41 182 -41q158 0 156 80q0 41 -38 67q-40 26 -94 44t-109 46t-94 90t-39 156q0 150 113 245q114 95 337 95q76 0 178 -18l-10 -244
q-74 27 -184 27t-109 -78q0 -37 39 -61t95 -46q57 -22 113 -52t95 -92t39 -152z" />
    <glyph glyph-name="Ydieresis" unicode="&#x178;" horiz-adv-x="1183" 
d="M748 0h-320v481l-432 901h348l158 -352q55 -123 88 -221h4q27 80 106 250l150 323h336l-438 -899v-483zM502 1618q0 -57 -42 -99t-100 -42t-100 41q-41 41 -41 100t41 100t99 41q59 0 101 -42t42 -99zM944 1618q0 -57 -42 -99t-99 -42t-100 42q-42 42 -41 99q0 57 41 99
t99 42t100 -42t42 -99z" />
    <glyph glyph-name="Zcaron" unicode="&#x17d;" horiz-adv-x="1097" 
d="M1008 0h-918v250l445 743q31 51 73 107q-74 -4 -217 -4h-287v286h895v-260l-469 -753q-14 -25 -53 -78q27 4 268 4h263v-295zM932 1634l-348 -180l-348 178l67 148l283 -117l280 117z" />
    <glyph glyph-name="zcaron" unicode="&#x17e;" horiz-adv-x="925" 
d="M801 1415l-334 -282l-332 282l117 141l217 -161l217 161zM834 0h-744v223l356 518q-57 -4 -184 -4h-160v281h725v-223l-346 -510q33 2 199 2h154v-287z" />
    <glyph glyph-name="florin" unicode="&#x192;" 
d="M858 1186q-76 0 -114 -44t-48 -153l-18 -205h278v-241h-301l-39 -402q-45 -471 -493 -471q-104 0 -189 21l33 264q102 -29 175 -29t113 45t50 152l39 420h-233v241h256l18 187q23 243 145 357t349 114q90 -1 186 -21l-35 -266q-96 31 -172 31z" />
    <glyph glyph-name="circumflex" unicode="&#x2c6;" horiz-adv-x="864" 
d="M764 1274l-117 -141l-217 161l-217 -161l-117 141l334 282z" />
    <glyph glyph-name="caron" unicode="&#x2c7;" horiz-adv-x="864" 
d="M762 1415l-334 -282l-332 282l117 141l217 -161l217 161z" />
    <glyph glyph-name="breve" unicode="&#x2d8;" horiz-adv-x="727" 
d="M657 1489q0 -147 -74 -244q-75 -96 -225 -96t-222 97t-70 243h204q0 -111 91 -111t92 111h204z" />
    <glyph glyph-name="dotaccent" unicode="&#x2d9;" horiz-adv-x="591" 
d="M475 1321q0 -76 -56 -130t-135 -54t-136 54q-56 54 -56 130t56 130t136 54t135 -54q56 -54 56 -130z" />
    <glyph glyph-name="ring" unicode="&#x2da;" horiz-adv-x="724" 
d="M465 1312q0 42 -30 72t-73 31q-42 0 -72 -31q-30 -30 -30 -72t30 -73t72 -31t73 31q30 31 30 73zM84 1311q0 115 81 191t197 75q116 1 198 -75q81 -76 81 -190t-81 -190t-198 -76q-118 0 -198 76q-80 74 -80 189z" />
    <glyph glyph-name="ogonek" unicode="&#x2db;" horiz-adv-x="686" 
d="M295 -475q-131 0 -192 59q-60 60 -60 140q0 163 154 276h323q-178 -84 -178 -188q0 -54 61 -54t113 58l115 -146q-135 -145 -336 -145z" />
    <glyph glyph-name="tilde" unicode="&#x2dc;" horiz-adv-x="917" 
d="M580 1167q-76 -1 -147 49t-99 50q-59 0 -109 -90l-145 110q98 199 264 199q76 0 148 -49t100 -50q59 0 106 91l146 -111q-94 -199 -264 -199z" />
    <glyph glyph-name="hungarumlaut" unicode="&#x2dd;" horiz-adv-x="1046" 
d="M561 1444l-311 -311l-141 120l278 338zM1001 1413l-339 -280l-136 122l314 316z" />
    <glyph glyph-name="Delta" unicode="&#x394;" horiz-adv-x="1570" 
d="M1061 287l-289 731l-289 -731h578zM1526 0h-1481l588 1434h305z" />
    <glyph glyph-name="Omega" unicode="&#x3a9;" horiz-adv-x="1533" 
d="M1415 0h-559v217q113 68 174 198q62 129 62 313t-87 304t-239 121q-152 0 -245 -120t-93 -306t58 -308t186 -202v-217h-559v233h239q-229 167 -229 477t182 504q181 194 469 195q288 0 462 -176t173 -485q0 -160 -66 -298t-178 -217h250v-233z" />
    <glyph glyph-name="mu" unicode="&#x3bc;" horiz-adv-x="1306" 
d="M530 -14q-68 0 -108 28l45 -499h-328v1503h312v-643q0 -133 98 -133q86 0 142 78t57 198v500h311v-664q0 -88 11 -116t45 -27q34 0 73 53l104 -143q-104 -143 -292 -143t-207 174h-2q-76 -166 -261 -166z" />
    <glyph glyph-name="pi" unicode="&#x3c0;" horiz-adv-x="1366" 
d="M1046 -25q-130 0 -191 66q-60 66 -60 201v522h-242v-764h-289v764h-184v254h1186v-254h-183v-369q1 -125 19 -161t74 -36t92 13l18 -211q-110 -25 -240 -25z" />
    <glyph glyph-name="endash" unicode="&#x2013;" 
d="M1126 473h-1126v275h1126v-275z" />
    <glyph glyph-name="emdash" unicode="&#x2014;" horiz-adv-x="2048" 
d="M1831 473h-1614v275h1614v-275z" />
    <glyph glyph-name="quoteleft" unicode="&#x2018;" horiz-adv-x="577" 
d="M508 1442q-104 -113 -122 -189t42 -139q39 -55 40 -121q1 -65 -50 -117t-133 -53q-117 0 -168 111q-70 147 35 346q76 143 229 274z" />
    <glyph glyph-name="quoteright" unicode="&#x2019;" horiz-adv-x="577" 
d="M291 1536q117 0 170 -111q68 -145 -35 -344q-76 -145 -231 -278l-127 115q106 112 122 188t-40 139q-41 55 -42 121t51 118t132 52z" />
    <glyph glyph-name="quotesinglbase" unicode="&#x201a;" horiz-adv-x="577" 
d="M291 352q117 0 170 -110q68 -145 -37 -346q-74 -143 -229 -275l-127 113q106 114 122 190t-40 137q-41 55 -42 121t51 118t132 52z" />
    <glyph glyph-name="quotedblleft" unicode="&#x201c;" horiz-adv-x="1062" 
d="M508 1442q-104 -113 -122 -189t42 -139q39 -55 40 -121q1 -65 -50 -117t-133 -53q-117 0 -168 111q-70 147 35 346q76 143 229 274zM995 1442q-105 -113 -123 -189t41 -139q41 -55 42 -121q1 -65 -51 -117t-132 -53q-117 0 -170 111q-68 145 37 346q76 143 229 274z" />
    <glyph glyph-name="quotedblright" unicode="&#x201d;" horiz-adv-x="1062" 
d="M291 1536q117 0 170 -111q68 -145 -35 -344q-76 -145 -231 -278l-127 115q106 112 122 188t-40 139q-41 55 -42 121t51 118t132 52zM778 1536q115 0 168 -111q68 -145 -35 -344q-76 -145 -231 -278l-127 115q105 112 123 188t-41 139q-39 55 -40 121t50 118t133 52z" />
    <glyph glyph-name="quotedblbase" unicode="&#x201e;" horiz-adv-x="1062" 
d="M291 352q117 0 170 -110q68 -145 -37 -346q-74 -143 -229 -275l-127 113q106 114 122 190t-40 137q-41 55 -42 121t51 118t132 52zM778 352q117 0 168 -110q68 -145 -37 -346q-74 -143 -229 -275l-127 113q105 114 123 190t-41 137q-39 55 -40 121t50 118t133 52z" />
    <glyph glyph-name="dagger" unicode="&#x2020;" horiz-adv-x="948" 
d="M872 1061h-268l49 -168l-53 -528h-250l-55 528l49 168h-268v239h268l-49 279h358l-49 -279h268v-239z" />
    <glyph glyph-name="daggerdbl" unicode="&#x2021;" horiz-adv-x="948" 
d="M872 575h-266l49 -239h-362l49 239h-266v240h266l-47 143l47 142h-266v239h266l-47 240h358l-47 -240h266v-239h-266l47 -142l-47 -143h266v-240z" />
    <glyph glyph-name="bullet" unicode="&#x2022;" horiz-adv-x="868" 
d="M774 608q0 -139 -100 -239q-100 -101 -240 -101t-240 100q-99 100 -100 240q0 140 100 240t239 100q140 0 241 -100q100 -101 100 -240z" />
    <glyph glyph-name="ellipsis" unicode="&#x2026;" horiz-adv-x="1560" 
d="M459 160q-1 -76 -55 -130t-131 -54t-130 52q-53 54 -53 131t54 130t130 53t130 -53t55 -129zM776 342q76 0 130 -53t55 -130q-1 -77 -55 -130t-130 -53t-130 54t-54 130t54 129t130 53zM1464 160q0 -76 -54 -130t-130 -54t-130 52q-54 54 -54 131t54 130t130 53t130 -53
t54 -129z" />
    <glyph glyph-name="perthousand" unicode="&#x2030;" horiz-adv-x="2189" 
d="M686 1045q0 -155 -93 -249t-226 -96q-133 0 -213 84t-80 236t91 245t223 93t215 -79t83 -234zM467 1035q0 133 -82 131q-41 0 -67 -37q-26 -36 -25 -101q0 -137 86 -137q37 1 63 37t25 107zM1362 1231l-1053 -1276l-182 141l1051 1278zM1421 318q0 -156 -93 -250
t-226 -94t-213 84q-80 85 -80 237t91 244t223 92t215 -79t83 -234zM1114 166q40 0 64 36t24 107q0 72 -20 102q-20 29 -62 29t-66 -36q-26 -36 -26 -101q0 -137 86 -137zM2105 318q0 -156 -93 -250t-226 -94t-213 84q-80 85 -80 237t91 244t223 92t215 -79t83 -234z
M1798 166q36 0 62 36t26 108q0 71 -20 101q-20 29 -62 29t-66 -36q-26 -36 -26 -101q0 -137 86 -137z" />
    <glyph glyph-name="guilsinglleft" unicode="&#x2039;" horiz-adv-x="638" 
d="M541 297l-250 -111l-225 412l231 416l240 -109l-175 -307z" />
    <glyph glyph-name="guilsinglright" unicode="&#x203a;" horiz-adv-x="638" 
d="M573 602l-231 -416l-242 109l174 307l-178 301l252 111z" />
    <glyph glyph-name="fraction" unicode="&#x2044;" horiz-adv-x="915" 
d="M1092 1278l-1024 -1358l-226 164l1024 1356z" />
    <glyph glyph-name="uni20AC" unicode="&#x20ac;" 
d="M819 602v-188h-309q27 -100 90 -146t176 -45q113 0 230 53l69 -237q-157 -66 -367 -66q-210 -1 -348 103t-182 338h-155v188h137v47q0 53 2 82h-139v189h170q53 202 197 320t390 118q141 0 287 -53l-72 -246q-106 51 -231 51q-186 0 -250 -190h305v-189h-340l-2 -59
q0 -47 2 -70h340z" />
    <glyph glyph-name="trademark" unicode="&#x2122;" horiz-adv-x="1398" 
d="M510 1194h-125v-387h-215v387h-131v188h471v-188zM1348 807h-228l-30 213l-11 88l-14 -84l-51 -217h-195l-51 223l-14 78l-4 -74l-31 -227h-205l94 575h252l55 -208l15 -78l12 73l51 213h256z" />
    <glyph glyph-name="partialdiff" unicode="&#x2202;" horiz-adv-x="1294" 
d="M811 478q0 94 -48 144t-140 50q-91 0 -149 -62t-58 -158t48 -146t136 -50t150 64t61 158zM1184 805q0 -428 -226 -655q-164 -164 -392 -164t-343 118t-115 331t144 357q143 144 377 144q150 0 231 -92q-10 68 -20 114q-32 137 -138 214t-256 75l48 264q310 -2 500 -193
t190 -513z" />
    <glyph glyph-name="product" unicode="&#x220f;" horiz-adv-x="1605" 
d="M1526 1231h-185v-1716h-290v1716h-494v-1716h-291v1716h-188v264h1448v-264z" />
    <glyph glyph-name="summation" unicode="&#x2211;" horiz-adv-x="1241" 
d="M1149 -485h-1075v243l571 766l-536 725v246h1009v-264h-626l514 -696l-566 -750h709v-270z" />
    <glyph glyph-name="minus" unicode="&#x2212;" 
d="M1051 473h-975v275h975v-275z" />
    <glyph glyph-name="radical" unicode="&#x221a;" horiz-adv-x="1273" 
d="M8 784v234h432l144 -488q31 -104 43 -176h4q16 109 35 170l264 1028h344l-471 -1552h-367l-256 784h-172z" />
    <glyph glyph-name="infinity" unicode="&#x221e;" horiz-adv-x="2029" 
d="M517 739q-75 0 -111 -37t-37 -92q0 -55 38 -90t99 -35q96 0 264 121q-178 133 -253 133zM1510 485q78 0 114 38t37 92q0 53 -38 89t-101 35q-96 0 -269 -123q179 -131 257 -131zM1517 1012q211 0 325 -108t114 -283q0 -174 -119 -291t-332 -117t-501 211
q-288 -211 -502 -211t-322 110q-108 111 -108 285t123 289t315 115q225 0 510 -217q287 217 497 217z" />
    <glyph glyph-name="integral" unicode="&#x222b;" horiz-adv-x="712" 
d="M568 1245q-50 0 -74 -44q-24 -45 -25 -187q0 -142 14 -453t15 -512q0 -291 -87 -424t-272 -133q-61 0 -121 12v269q35 -11 89 -11t79 45t25 191t-14 451t-15 509q0 555 371 555q59 0 109 -12v-268q-44 12 -94 12z" />
    <glyph glyph-name="approxequal" unicode="&#x2248;" 
d="M371 313q-96 0 -201 -88l-104 207q154 141 296 141q94 0 210 -59t210 -59t181 80l98 -205q-61 -58 -145 -96t-170 -38t-201 59q-115 58 -174 58zM758 631q-82 0 -198 58q-116 59 -202 59t-194 -86l-98 204q152 141 313 142q96 0 214 -60t167 -59q96 0 194 90l105 -207
q-137 -141 -301 -141z" />
    <glyph glyph-name="notequal" unicode="&#x2260;" 
d="M1038 274h-465l-88 -223h-280l88 223h-205v250h303l66 168h-369v250h467l86 221h281l-86 -221h202v-250h-301l-67 -168h368v-250z" />
    <glyph glyph-name="lessequal" unicode="&#x2264;" 
d="M977 0h-827v260h827v-260zM954 537l-200 -215l-645 538l643 537l202 -209l-436 -326z" />
    <glyph glyph-name="greaterequal" unicode="&#x2265;" 
d="M977 0h-827v260h827v-260zM1018 860l-643 -538l-203 210l436 326l-436 326l201 213z" />
    <glyph glyph-name="lozenge" unicode="&#x25ca;" horiz-adv-x="1290" 
d="M920 680l-285 381l-260 -361l278 -383zM1262 688l-514 -708h-197l-522 712l520 711h194z" />
    <glyph glyph-name="fi" unicode="&#xfb01;" horiz-adv-x="1226" 
d="M1106 0h-313v778h-308v-778h-311v778h-156v240h156v31q0 237 127 351t393 113q164 0 336 -36l-51 -260q-135 39 -257 39t-179 -47q-57 -46 -58 -146v-45h621v-1018z" />
    <glyph glyph-name="fl" unicode="&#xfb02;" horiz-adv-x="1226" 
d="M1106 0h-313v1247q-49 10 -121 10q-186 0 -187 -161v-78h191v-240h-191v-778h-311v778h-156v240h156v86q0 190 126 300t398 109q168 0 408 -38v-1475z" />
    <glyph glyph-name="HT" horiz-adv-x="1437" 
 />
    <glyph glyph-name="Euro" 
d="M819 602v-188h-309q27 -100 90 -146t176 -45q113 0 230 53l69 -237q-157 -66 -367 -66q-210 -1 -348 103t-182 338h-155v188h137v47q0 53 2 82h-139v189h170q53 202 197 320t390 118q141 0 287 -53l-72 -246q-106 51 -231 51q-186 0 -250 -190h305v-189h-340l-2 -59
q0 -47 2 -70h340z" />
    <glyph glyph-name="apple" horiz-adv-x="2140" 
d="M23 793l337 -37q-6 -74 0 -144l-337 -37q-12 107 0 218zM1087 727q4 0 5 10q0 10 -5 11q6 -11 0 -21zM1085 741q-6 0 -3 -4t-1 -4v-2q6 2 4 8v2zM1075 733v-2h2v6q0 10 -8 2q4 0 6 -2q-4 0 -6 -4h6zM1065 738q0 -10 4 -11q-6 10 0 21q-4 0 -4 -10zM1061 733q-2 0 -2 2
t2 4v2q-4 2 -4 -3t4 -7v2zM1053 741h-2v-6h-2v6h-2v-6q2 -4 6 0v6zM1044 731v2h-4v12h-2v-14h6zM1315 -115l-23 54l-469 -121l45 -107h406l18 47l-6 17l-137 -35l-33 96zM1315 59l-23 54l-471 -121l25 -51zM1315 264h-490v-86l27 -63l463 118v31zM1070 670q-44 0 -75 -2
l29 -273h94l25 273q-29 2 -73 2zM1070 813q142 0 292 -43q16 -4 20 -45t-6 -76t-38 -25t-78 23l-27 -252h88q131 113 131 280t-112 279t-270 113q-158 0 -270 -113q-112 -114 -112 -280t133 -279h88l-28 252q-41 -8 -82 -26q-20 -6 -32 28q-11 35 -6 76t21 45q146 43 288 43
zM1616 690q0 -219 -133 -364v-168l-33 -8l68 -158l-66 -17l66 -153l-70 -17l20 -49l-65 -153h-125q-8 -43 -66 -73t-141 -30q-82 0 -141 30t-66 73h-125l-116 280l63 19l-65 157l71 19l-37 90v162q-129 156 -129 368t159 371q159 160 385 160t386 -160t160 -379zM2120 791
q10 -106 0 -216l-332 37q10 72 0 144zM1524 1239l207 256q88 -72 151 -152l-256 -206q-43 55 -102 102zM1145 1389q-74 10 -146 0l-36 323q96 14 215 0zM258 1346q76 94 152 151l213 -260q-51 -41 -101 -102z" />
    <glyph glyph-name="Grave" horiz-adv-x="772" 
d="M657 1622l-49 -168l-475 105l66 217z" />
    <glyph glyph-name="Acute" horiz-adv-x="811" 
d="M662 1559l-478 -105l-47 168l459 154z" />
    <glyph glyph-name="Dieresis" horiz-adv-x="1118" 
d="M453 1618q0 -57 -42 -99q-41 -42 -99 -42t-100 42t-42 99t42 99t99 42t99 -42t43 -99zM897 1618q0 -57 -41 -99t-100 -42t-101 42q-41 42 -41 99t41 99t101 42t100 -42q41 -42 41 -99z" />
    <glyph glyph-name="Circumflex" horiz-adv-x="864" 
d="M774 1602l-69 -148l-281 117l-283 -117l-65 145l348 181z" />
    <glyph glyph-name="Tilde" horiz-adv-x="917" 
d="M596 1481q-80 0 -154 45t-102 45q-66 0 -113 -84l-151 102q100 180 274 180q80 0 154 -45t102 -45q63 0 111 84l153 -102q-104 -180 -274 -180z" />
    <glyph glyph-name="Caron" horiz-adv-x="864" 
d="M772 1634l-348 -180l-348 178l67 148l283 -117l281 117z" />
  </font>
</defs>
</svg>
